<svg width="303" height="311" viewBox="0 0 303 311" fill="none" xmlns="http://www.w3.org/2000/svg">
<path d="M176.85 265.9L176.851 265.9L176.859 265.897C182.244 264.216 187.854 263.37 193.493 263.386C192.932 268.234 191.443 273.784 189.196 278.951C186.863 284.316 183.73 289.23 180.009 292.515C176.301 295.789 171.562 297.596 167.236 298.457C162.923 299.316 159.088 299.222 157.172 298.753C155.895 298.251 154.665 297.639 153.496 296.923C153.609 296.852 153.733 296.775 153.865 296.694C154.461 296.326 155.205 295.875 155.806 295.535L155.817 295.529L155.828 295.522C158.73 293.674 161.226 291.255 163.163 288.412L163.163 288.412L163.171 288.4C165.248 285.158 166.425 281.42 166.579 277.573C166.696 275.261 166.553 272.944 166.152 270.665C169.489 268.606 173.087 267.004 176.85 265.9Z" fill="#388f4d" stroke="#388f4d"/>
<path d="M125.63 265.897L125.63 265.897L125.639 265.9C129.403 267.004 133 268.606 136.337 270.665C135.937 272.944 135.793 275.261 135.91 277.573C136.065 281.42 137.241 285.158 139.319 288.4L139.323 288.406L139.327 288.412C141.265 291.244 143.756 293.652 146.652 295.492L146.663 295.499L146.674 295.505C147.275 295.845 148.019 296.296 148.615 296.664C148.746 296.745 148.87 296.822 148.984 296.893C147.815 297.609 146.585 298.221 145.308 298.723C143.392 299.192 139.557 299.286 135.244 298.427C130.918 297.566 126.179 295.759 122.471 292.485C118.75 289.2 115.616 284.286 113.283 278.921C111.037 273.755 109.548 268.205 108.987 263.356C114.631 263.349 120.244 264.205 125.63 265.897Z" fill="#388f4d" stroke="#388f4d"/>
<path d="M160.155 260.118L160.157 260.121C161.442 262.877 162.459 265.75 163.194 268.7C163.757 271.002 164.044 273.362 164.05 275.731H164.05L164.05 275.744C164.182 280.345 162.733 284.852 159.944 288.514C158.474 290.384 156.761 292.05 154.852 293.469L154.852 293.469L154.847 293.472C153.656 294.378 152.423 295.226 151.151 296.013C149.764 295.15 148.424 294.213 147.138 293.206L147.137 293.206C141.634 288.921 138.221 283.677 138.22 275.683C138.246 273.407 138.536 271.142 139.084 268.933C141.279 260.535 145.417 252.773 151.16 246.271C154.821 250.419 157.852 255.085 160.155 260.118Z" fill="#388f4d" stroke="#388f4d"/>
<path d="M224.604 283.198L224.603 283.199C223.674 284.717 222.567 286.119 221.307 287.376L221.307 287.376L221.3 287.383C218.903 289.864 215.727 291.449 212.302 291.873C210.523 292.065 208.726 292.019 206.959 291.736L206.955 291.736C205.856 291.569 204.766 291.351 203.688 291.081C203.423 289.909 203.219 288.725 203.077 287.532C202.491 282.325 203.511 277.75 207.798 273.549C209.035 272.366 210.405 271.33 211.881 270.463C217.523 267.24 223.838 265.379 230.322 265.026C230.01 269.137 229.101 273.18 227.623 277.031L227.622 277.034C226.816 279.181 225.805 281.245 224.604 283.198Z" fill="#388f4d" stroke="#388f4d"/>
<path d="M253.489 284.094L253.488 284.094C251.913 284.708 250.275 285.148 248.604 285.406L248.604 285.406L248.592 285.408C245.41 285.979 242.129 285.522 239.224 284.103C237.786 283.365 236.451 282.439 235.257 281.35L235.254 281.348C234.536 280.702 233.849 280.023 233.195 279.312C233.65 278.366 234.154 277.445 234.705 276.553L234.709 276.546L234.714 276.539C235.898 274.474 237.551 272.717 239.539 271.407C241.526 270.097 243.793 269.271 246.158 268.997L246.158 268.997L246.168 268.995C247.789 268.771 249.429 268.722 251.06 268.848C257.037 269.348 262.828 271.158 268.022 274.148C265.444 276.902 262.497 279.287 259.262 281.232L259.262 281.232L259.259 281.234C257.424 282.357 255.493 283.315 253.489 284.094ZM248.68 285.9C250.387 285.636 252.06 285.187 253.67 284.56L239 284.55C242.001 286.017 245.392 286.49 248.68 285.9Z" fill="#388f4d" stroke="#388f4d"/>
<path d="M82.1591 283.26L82.1589 283.26C81.1496 281.202 80.3404 279.052 79.7427 276.84L79.7427 276.84L79.7417 276.836C78.6352 272.858 78.1145 268.741 78.1951 264.615C84.6141 265.586 90.7211 268.041 96.0293 271.787C97.4158 272.79 98.6811 273.95 99.8 275.245C103.679 279.833 104.245 284.485 103.151 289.615C102.896 290.786 102.579 291.944 102.203 293.082C101.105 293.247 100.001 293.36 98.8928 293.421L98.8893 293.421C97.1055 293.531 95.315 293.403 93.5648 293.041C90.194 292.292 87.1818 290.41 85.0312 287.709L85.0312 287.709L85.0253 287.701C83.8987 286.339 82.9367 284.848 82.1591 283.26Z" fill="#388f4d" stroke="#388f4d"/>
<path d="M52.5322 284.905L52.5311 284.904C50.5263 284.125 48.5953 283.167 46.7612 282.044L46.7576 282.042C43.5232 280.097 40.5755 277.712 37.9983 274.958C43.1923 271.968 48.9831 270.158 54.9601 269.658C56.5911 269.532 58.231 269.581 59.8515 269.805L59.8515 269.806L59.8605 269.807C62.2165 270.088 64.4738 270.917 66.4524 272.227C68.431 273.536 70.0761 275.29 71.2562 277.349L71.2603 277.356L71.2646 277.363C71.8162 278.255 72.3203 279.176 72.7747 280.122C72.1212 280.833 71.4341 281.512 70.7157 282.158L70.7132 282.161C69.5183 283.249 68.1843 284.175 66.7461 284.913C63.8413 286.332 60.5602 286.789 57.3783 286.218L57.3783 286.218L57.368 286.216C55.7134 285.955 54.092 285.515 52.5322 284.905Z" fill="#388f4d" stroke="#388f4d"/>
<path d="M151.25 301.71C234.093 301.71 301.25 234.553 301.25 151.71C301.25 68.8672 234.093 1.70996 151.25 1.70996C68.4073 1.70996 1.25 68.8672 1.25 151.71C1.25 234.553 68.4073 301.71 151.25 301.71Z" stroke="#388f4d" stroke-width="2" stroke-miterlimit="10"/>
<path d="M138.297 304.972C138.416 305.32 138.583 305.647 138.793 305.945C129.358 307.588 119.818 308.56 110.245 308.852C110.401 308.363 110.67 307.777 111.062 307.128C111.624 306.199 112.421 305.171 113.446 304.157C115.497 302.129 118.441 300.179 122.196 299.204C124.037 298.726 126.111 298.727 128.348 298.953C130.014 299.121 131.738 299.41 133.505 299.705C134.115 299.807 134.73 299.91 135.35 300.009C140.124 300.772 145.128 301.308 149.394 299.167L149.418 299.155L149.441 299.14C150.041 298.753 150.669 298.412 151.321 298.121C152.065 298.42 152.775 298.799 153.437 299.253L153.45 299.261L153.463 299.269C157.899 301.925 162.774 301.352 167.381 300.439C168.113 300.294 168.835 300.141 169.55 299.99C171.109 299.66 172.627 299.339 174.112 299.128C176.266 298.823 178.278 298.766 180.111 299.253C183.876 300.254 186.904 302.198 189.035 304.218C190.1 305.228 190.936 306.252 191.525 307.178C191.938 307.827 192.22 308.412 192.381 308.901C182.802 308.609 173.256 307.637 163.814 305.991C164.081 305.586 164.262 305.127 164.343 304.642L163.447 304.265C163.122 304.707 162.549 305.198 161.747 305.712C160.952 306.222 159.964 306.734 158.84 307.23C156.627 308.207 153.923 309.104 151.221 309.775C148.557 309.099 145.947 308.249 143.793 307.327C141.583 306.381 139.928 305.39 139.149 304.484L138.297 304.972Z" fill="#388f4d" stroke="#388f4d"/>
</svg>
