<svg width="136" height="50" viewBox="0 0 136 50" fill="current" xmlns="http://www.w3.org/2000/svg">
<path d="M16.1245 25.8902C20.2444 23.0865 21.3986 19.547 21.5706 15.3414C17.7454 13.8381 14.1597 13.5463 10.0399 16.35C5.92003 19.1537 2.19927 25.1353 0.830078 29.4741C5.40428 29.8483 12.0046 28.6938 16.1245 25.8902Z" fill="current"/>
<path d="M48.8186 34.6642C51.8456 33.7732 54.735 32.4682 57.4047 30.7861C57.0663 28.9737 56.943 27.1276 57.0374 25.2862C57.1529 22.3934 58.0353 19.5833 59.5942 17.1437C61.0589 15.0033 62.943 13.1825 65.1322 11.7917C66.0862 11.2622 67.4362 10.3845 67.4362 10.3845C66.3569 9.67264 65.2058 9.07628 64.0017 8.60527C60.9298 7.84683 51.8714 8.32384 46.0137 13.4946C40.1561 18.6654 36.2303 28.8733 35.4385 36.6533C39.9755 36.6999 44.4913 36.0286 48.8186 34.6642Z" fill="current"/>
<path d="M88.0955 34.6642C85.0684 33.7732 82.1791 32.4682 79.5093 30.7861C79.8478 28.9737 79.9711 27.1276 79.8766 25.2862C79.7625 22.3939 78.8818 19.5838 77.3246 17.1437C75.8598 15.0033 73.9758 13.1825 71.7866 11.7917C70.8325 11.2622 69.4826 10.3845 69.4826 10.3845C70.5619 9.67264 71.713 9.07628 72.9171 8.60527C75.989 7.84683 85.0474 8.32384 90.905 13.4946C96.7627 18.6654 100.688 28.8733 101.48 36.6533C96.9417 36.7004 92.4242 36.0291 88.0955 34.6642V34.6642Z" fill="current"/>
<path d="M58.8644 32.2218C59.4436 34.5191 60.2423 36.7554 61.2495 38.8999C63.0999 42.9482 65.556 46.6911 68.5334 49.9999C72.5688 45.7068 76.6425 38.6519 78.2166 32.0406C78.6466 30.3078 78.8739 28.531 78.894 26.7458C78.894 20.435 76.1846 16.285 71.8629 12.9125C70.7937 12.0916 69.6789 11.3319 68.5238 10.6372C67.4516 11.2844 66.4135 11.9865 65.4137 12.7408C63.9128 13.8567 62.5669 15.1672 61.4116 16.638C59.351 19.3188 58.1632 22.5529 58.1632 26.7315C58.1792 28.5829 58.4145 30.4258 58.8644 32.2218V32.2218Z" fill="current"/>
<path d="M59.4988 3.11486C53.188 1.82694 43.3712 0.930165 36.2352 0.729822C36.5261 2.80481 40.1466 7.36023 46.0902 8.9439C52.0337 10.5276 59.9663 4.95612 66.5443 8.88666C67.1244 9.27714 67.7489 9.59739 68.4046 9.84068C68.9785 9.59341 69.5306 9.2982 70.055 8.95821C76.3897 5.77657 85.014 10.5085 90.9575 8.92005C96.901 7.33161 100.273 2.78095 100.569 0.70597C93.4141 0.906313 83.6164 1.79832 77.3056 3.09101C77.6536 3.39538 77.9138 3.78738 78.0592 4.22629C76.7332 2.70464 72.6786 1.05419 68.4618 0C64.2021 1.04942 59.8757 2.82866 58.7213 4.4171C58.8275 3.90826 59.1013 3.44972 59.4988 3.11486V3.11486Z" fill="current"/>
<path d="M119.989 25.889C115.869 23.0856 114.715 19.5464 114.543 15.3413C118.368 13.8381 121.953 13.5464 126.073 16.3498C130.192 19.1532 133.912 25.1342 135.282 29.4725C130.708 29.8531 124.102 28.686 119.989 25.889Z" fill="current"/>
</svg>
