<svg width="31" height="31" viewBox="0 0 31 31" fill="none" xmlns="http://www.w3.org/2000/svg">
<g clip-path="url(#clip0_184_721)">
<path d="M7.96355 0.31665H22.5769C22.6714 0.33405 22.7653 0.35775 22.8607 0.36825C23.6788 0.45825 24.4807 0.63825 25.2214 0.99015C28.4473 2.51655 30.1744 5.07165 30.22 8.64405C30.277 13.066 30.2344 17.4895 30.2332 21.9121C30.2332 23.065 30.0481 24.1921 29.5573 25.2346C28.0429 28.4524 25.4923 30.181 21.9331 30.2299C17.4931 30.2917 13.0492 30.2482 8.60706 30.2431C6.88566 30.241 5.29086 29.7769 3.88746 28.7764C1.50846 27.0799 0.316555 24.745 0.309955 21.8242C0.298755 17.4598 0.299955 13.0955 0.313555 8.73135C0.315055 8.16945 0.345055 7.59435 0.465355 7.04805C1.21236 3.65805 3.27605 1.49325 6.61925 0.56205C7.05575 0.43995 7.51475 0.39645 7.96355 0.31665ZM15.2713 27.592C17.4335 27.592 19.5958 27.592 21.7582 27.592C22.4425 27.592 23.1184 27.5224 23.7682 27.2905C26.1382 26.4454 27.5734 24.4051 27.5782 21.8335C27.5863 17.47 27.5929 13.1062 27.5671 8.74275C27.5632 8.09115 27.472 7.41015 27.265 6.79515C26.4589 4.40175 24.385 2.97555 21.799 2.97225C17.4451 2.96685 13.0915 2.95845 8.73785 2.98395C8.08625 2.98785 7.40496 3.07695 6.78966 3.28395C4.41666 4.07805 2.97366 6.12825 2.96406 8.68545C2.94766 13.0782 2.94696 17.4711 2.96196 21.8641C2.96556 23.8141 3.74556 25.3912 5.32566 26.5477C6.34296 27.2923 7.50366 27.5956 8.75526 27.5932C10.9273 27.5892 13.0993 27.5888 15.2713 27.592Z" fill="#388f4d"/>
<path d="M15.2758 22.9941C11.0428 23.0013 7.55564 19.5141 7.55774 15.2796C7.55984 11.0451 11.05 7.55669 15.28 7.56839C19.51 7.58009 22.9666 11.0328 22.9828 15.2685C22.999 19.4967 19.5169 22.9869 15.2758 22.9941ZM20.3218 15.2754C20.3134 12.4854 18.0445 10.221 15.2641 10.2294C12.4741 10.2378 10.21 12.5064 10.2184 15.2871C10.2265 18.0771 12.4948 20.3412 15.2758 20.3331C18.0661 20.325 20.3302 18.0558 20.3218 15.2754Z" fill="#388f4d"/>
<path d="M23.3017 5.32642C24.3736 5.32342 25.2655 6.21412 25.2517 7.27642C25.2379 8.33872 24.3655 9.20482 23.3083 9.20692C22.2385 9.20902 21.3451 8.31562 21.3562 7.25542C21.3627 6.743 21.5703 6.25364 21.9342 5.89282C22.2981 5.53199 22.7892 5.32859 23.3017 5.32642V5.32642Z" fill="#388f4d"/>
</g>
<defs>
<clipPath id="clip0_184_721">
<rect width="30" height="30" fill="white" transform="translate(0.25 0.290039)"/>
</clipPath>
</defs>
</svg>
