<svg width="40" height="62" viewBox="0 0 40 62" fill="none" xmlns="http://www.w3.org/2000/svg">
<path d="M2.6834 51.6841C2.18093 52.6996 1.76574 53.7652 1.44351 54.866C0.824489 56.9292 0.487257 59.0801 0.443452 61.2447C3.4226 60.899 6.29816 59.7567 8.8282 57.9141C9.4794 57.4308 10.0798 56.8652 10.6173 56.2288C12.4974 53.9564 12.8711 51.5786 12.5056 48.9575C12.4131 48.3139 12.2881 47.6773 12.1313 47.051C11.6012 46.9338 11.0656 46.8476 10.5265 46.7926C9.72242 46.7043 8.90936 46.7367 8.10869 46.8887C6.55309 47.2098 5.13233 48.118 4.08365 49.4618C3.54129 50.1395 3.07123 50.8855 2.6834 51.6841Z" fill="current"/>
<path d="M24.5679 17.6245C22.512 16.1168 20.3452 14.8173 18.0936 13.7416C13.948 11.7159 9.57678 10.3818 5.11922 9.78165C5.84676 17.6582 8.14716 25.2855 11.8456 32.0838C12.8399 33.8875 14 35.5696 15.3059 37.1011C17.1834 39.3982 19.5004 41.1772 22.0708 42.2952C24.6412 43.4132 27.3934 43.839 30.1061 43.5384C31.4117 43.4425 32.7095 43.2602 33.9928 42.9925C34.2307 41.6486 34.4049 40.2896 34.5148 38.9214C34.6942 36.8447 34.6286 34.7438 34.3197 32.6737C33.6291 28.5262 31.7941 24.7047 29.0811 21.7635C27.7105 20.2053 26.1972 18.8174 24.5679 17.6245Z" fill="current"/>
</svg>
